<svg id="Layer_1" data-name="Layer 1" xmlns="http://www.w3.org/2000/svg" viewBox="0 0 512 449.97"><defs><style>.cls-1{fill:#99258d;}</style></defs><title>download3</title><path class="cls-1" d="M499,340a13,13,0,0,0-13,13v49.8a52.2,52.2,0,0,1-52.13,52.14H78.2a52.2,52.2,0,0,1-52.13-52.14V353A13,13,0,0,0,0,353v49.8A78.3,78.3,0,0,0,78.2,481H433.8A78.3,78.3,0,0,0,512,402.78V353A13,13,0,0,0,499,340Z" transform="translate(0 -31.01)"/><path class="cls-1" d="M419.83,391.3H92.17a13,13,0,1,0,0,26.07H419.83a13,13,0,1,0,0-26.07Z" transform="translate(0 -31.01)"/><path class="cls-1" d="M387.92,207.93a13,13,0,0,0-18.4-1L269,296.66V44.05a13,13,0,1,0-26.06,0V296.66L142.48,206.89a13,13,0,0,0-17.36,19.44l109.17,97.53a32.57,32.57,0,0,0,43.42,0l109.17-97.53A13,13,0,0,0,387.92,207.93Z" transform="translate(0 -31.01)"/></svg>