<?xml version="1.0" encoding="utf-8"?>
<!-- Generator: Adobe Illustrator 23.0.1, SVG Export Plug-In . SVG Version: 6.00 Build 0)  -->
<svg version="1.1" id="Layer_1" xmlns="http://www.w3.org/2000/svg" xmlns:xlink="http://www.w3.org/1999/xlink" x="0px" y="0px"
	 viewBox="0 0 512 512" style="enable-background:new 0 0 512 512;" xml:space="preserve">
<style type="text/css">
	.st0{fill:#FFFFFF;}
</style>
<g>
	<g>
		<path class="st0" d="M499,339.9c-7.2,0-13,5.8-13,13v49.8c0,28.7-23.4,52.1-52.1,52.1H78.2c-28.7,0-52.1-23.4-52.1-52.1V353
			c0-7.2-5.8-13-13-13s-13,5.8-13,13v49.8C0,445.9,35.1,481,78.2,481h355.6c43.1,0,78.2-35.1,78.2-78.2V353
			C512,345.8,506.2,339.9,499,339.9z"/>
	</g>
</g>
<g>
	<g>
		<path class="st0" d="M419.8,391.3H92.2c-7.2,0-13,5.8-13,13s5.8,13,13,13h327.7c7.2,0,13-5.8,13-13
			C432.9,397.1,427,391.3,419.8,391.3z"/>
	</g>
</g>
<g>
	<g>
		<path class="st0" d="M387.9,207.9c-4.8-5.4-13-5.8-18.4-1L269,296.7V44c0-7.2-5.8-13-13-13c-7.2,0-13,5.8-13,13v252.6l-100.5-89.8
			c-5.4-4.8-13.6-4.3-18.4,1c-4.8,5.4-4.3,13.6,1,18.4l109.2,97.5c6.2,5.5,13.9,8.3,21.7,8.3c7.8,0,15.5-2.8,21.7-8.3l109.2-97.5
			C392.2,221.5,392.7,213.3,387.9,207.9z"/>
	</g>
</g>
</svg>
